<svg width="24" height="24" viewBox="0 0 24 24" fill="none" xmlns="http://www.w3.org/2000/svg">
<path d="M4.17389 14.8849H3.42389H4.17389ZM6.9068 18.0832L7.00981 17.3403H7.00981L6.9068 18.0832ZM17.0932 18.0832L16.9901 17.3403H16.9901L17.0932 18.0832ZM4.64036 13.187L3.9962 12.8028L4.64036 13.187ZM6.66303 8.08671C6.66303 5.13919 9.05246 2.74976 12 2.74976V1.24976C8.22404 1.24976 5.16303 4.31076 5.16303 8.08671H6.66303ZM6.66303 10.1792V8.08671H5.16303V10.1792H6.66303ZM4.92389 14.8849C4.92389 14.4034 5.0556 13.955 5.28451 13.5711L3.9962 12.8028C3.63259 13.4126 3.42389 14.1255 3.42389 14.8849H4.92389ZM7.00981 17.3403C5.81018 17.174 4.92389 16.131 4.92389 14.8849H3.42389C3.42389 16.8446 4.828 18.5521 6.80379 18.8261L7.00981 17.3403ZM12 17.7717C10.508 17.7717 8.58041 17.5581 7.00981 17.3403L6.80379 18.8261C8.38656 19.0456 10.3993 19.2717 12 19.2717V17.7717ZM16.9901 17.3403C15.4195 17.5581 13.492 17.7717 12 17.7717V19.2717C13.6007 19.2717 15.6134 19.0456 17.1962 18.8261L16.9901 17.3403ZM19.0761 14.8849C19.0761 16.131 18.1898 17.174 16.9901 17.3403L17.1962 18.8261C19.1719 18.5521 20.5761 16.8446 20.5761 14.8849H19.0761ZM18.7154 13.5711C18.9444 13.955 19.0761 14.4034 19.0761 14.8849H20.5761C20.5761 14.1255 20.3674 13.4126 20.0038 12.8028L18.7154 13.5711ZM17.3369 8.08671V10.1793H18.8369V8.08671H17.3369ZM12 2.74976C14.9475 2.74976 17.3369 5.13919 17.3369 8.08671H18.8369C18.8369 4.31077 15.7759 1.24976 12 1.24976V2.74976ZM20.0038 12.8028C19.6949 12.2849 19.4143 11.8699 19.183 11.4064C18.9615 10.9626 18.8369 10.5668 18.8369 10.1793H17.3369C17.3369 10.8921 17.567 11.5276 17.8409 12.0763C18.105 12.6054 18.4608 13.1441 18.7154 13.5711L20.0038 12.8028ZM5.16303 10.1792C5.16303 10.5667 5.03851 10.9626 4.81699 11.4064C4.58565 11.8698 4.3051 12.2849 3.9962 12.8028L5.28451 13.5711C5.5392 13.1441 5.89499 12.6054 6.15908 12.0763C6.43301 11.5275 6.66303 10.8921 6.66303 10.1792H5.16303Z" fill="#80807A"/>
<path d="M14.1739 20.8337C13.7065 21.5366 12.9074 21.9999 12 21.9999C11.0926 21.9999 10.2934 21.5366 9.82607 20.8337" stroke="#80807A" stroke-width="1.5" stroke-linecap="round"/>
</svg>
